# xmcd CD database file
#
# Track frame offsets:
#	150
#	27687
#	56285
#	78462
#	95890
#	119760
#	146700
#	172810
#	191605
#
# Disc length: 2926 seconds
#
# Revision: 1
# Processed by: cddbd v1.5.2PL0 Copyright (c) Steve Scherf et al.
# Submitted via: CDex 1.51
#
DISCID=800b6c09
DTITLE=Wes Martin - 3 Pound Universe
DYEAR=1995
DGENRE=Jazz
TTITLE0=Things Come To Mind
TTITLE1=Magpie
TTITLE2=Prividence and Method
TTITLE3=Dustjackets
TTITLE4=Ghost Of A Page
TTITLE5=As The Oistrich Flies
TTITLE6=Bleed Like You
TTITLE7=Repair
TTITLE8=Nursing Emphysema
EXTD=YEAR: 1995
EXTT0=
EXTT1=
EXTT2=
EXTT3=
EXTT4=
EXTT5=
EXTT6=
EXTT7=
EXTT8=
PLAYORDER=
